<svg width="" height="" viewBox="0 0 18 18" fill="" xmlns="http://www.w3.org/2000/svg">
  <path d="M2.16667 17.5C1.70833 17.5 1.31597 17.3368 0.989583 17.0104C0.663194 16.684 0.5 16.2917 0.5 15.8333V4.16667C0.5 3.70833 0.663194 3.31597 0.989583 2.98958C1.31597 2.66319 1.70833 2.5 2.16667 2.5H9.60417L7.9375 4.16667H2.16667V15.8333H13.8333V10.0417L15.5 8.375V15.8333C15.5 16.2917 15.3368 16.684 15.0104 17.0104C14.684 17.3368 14.2917 17.5 13.8333 17.5H2.16667ZM5.5 12.5V8.95833L13.1458 1.3125C13.3125 1.14583 13.5 1.02083 13.7083 0.9375C13.9167 0.854167 14.125 0.8125 14.3333 0.8125C14.5556 0.8125 14.7674 0.854167 14.9688 0.9375C15.1701 1.02083 15.3542 1.14583 15.5208 1.3125L16.6875 2.5C16.8403 2.66667 16.9583 2.85069 17.0417 3.05208C17.125 3.25347 17.1667 3.45833 17.1667 3.66667C17.1667 3.875 17.1285 4.07986 17.0521 4.28125C16.9757 4.48264 16.8542 4.66667 16.6875 4.83333L9.04167 12.5H5.5ZM7.16667 10.8333H8.33333L13.1667 6L12.5833 5.41667L11.9792 4.83333L7.16667 9.64583V10.8333Z" />
</svg>