<svg width="" height="" viewBox="0 0 302 204" fill="" xmlns="http://www.w3.org/2000/svg">
<path d="M1.74951 196.716C1.74951 193.928 3.87939 191.854 6.70848 191.854C8.01357 191.854 9.20833 192.28 10.0467 193.132L9.7582 193.434C8.90625 192.609 7.86252 192.28 6.72206 192.28C4.15263 192.28 2.21622 194.203 2.21622 196.718C2.21622 199.231 4.15263 201.156 6.72206 201.156C7.86252 201.156 8.90625 200.813 9.7582 199.988L10.0467 200.29C9.20833 201.156 8.01357 201.582 6.70848 201.582C3.87939 201.58 1.74951 199.505 1.74951 196.716Z" />
<path d="M11.3398 196.716C11.3398 193.928 13.4697 191.854 16.2988 191.854C19.1432 191.854 21.2714 193.928 21.2714 196.716C21.2714 199.505 19.1415 201.578 16.2988 201.578C13.4697 201.58 11.3398 199.505 11.3398 196.716ZM20.8047 196.716C20.8047 194.174 18.8682 192.278 16.2988 192.278C13.743 192.278 11.8066 194.174 11.8066 196.716C11.8066 199.257 13.743 201.154 16.2988 201.154C18.8682 201.154 20.8047 199.259 20.8047 196.716Z" />
<path d="M31.4949 191.908V201.524H31.1096L24.2821 192.76V201.524H23.8154V191.908H24.2007L31.0282 200.672V191.908H31.4949Z" />
<path d="M42.6907 191.908V201.524H42.3054L35.4779 192.76V201.524H35.0112V191.908H35.3965L42.224 200.672V191.908H42.6907Z" />
<path d="M52.7072 201.098V201.524H46.209V191.908H52.5138V192.334H46.6757V196.428H51.896V196.854H46.6757V201.098H52.7072Z" />
<path d="M54.3433 196.716C54.3433 193.928 56.4731 191.854 59.3022 191.854C60.6073 191.854 61.8021 192.28 62.6405 193.132L62.3519 193.434C61.5 192.609 60.4563 192.28 59.3158 192.28C56.7464 192.28 54.81 194.203 54.81 196.718C54.81 199.231 56.7464 201.156 59.3158 201.156C60.4563 201.156 61.5 200.813 62.3519 199.988L62.6405 200.29C61.8021 201.156 60.6073 201.582 59.3022 201.582C56.4731 201.58 54.3433 199.505 54.3433 196.716Z" />
<path d="M66.8049 192.334H63.2749V191.908H70.7897V192.334H67.2597V201.524H66.8066V192.334H66.8049Z" />
<path d="M72.6025 191.908H73.0692V201.524H72.6025V191.908Z" />
<path d="M84.2668 191.908V201.524H83.8816L77.0541 192.76V201.524H76.5874V191.908H76.9727L83.8001 200.672V191.908H84.2668Z" />
<path d="M94.7361 196.786H95.1756V200.343C94.3237 201.168 93.1153 201.58 91.8103 201.58C88.9387 201.58 86.8105 199.506 86.8105 196.718C86.8105 193.93 88.9404 191.856 91.8103 191.856C93.1561 191.856 94.3508 192.268 95.1892 193.12L94.9143 193.436C94.0487 192.597 93.005 192.282 91.8238 192.282C89.2137 192.282 87.2773 194.205 87.2773 196.72C87.2773 199.233 89.2137 201.158 91.8238 201.158C92.9236 201.158 93.9401 200.869 94.7361 200.155V196.786Z" />
<path d="M100.919 196.716C100.919 193.928 103.049 191.854 105.878 191.854C107.183 191.854 108.378 192.28 109.216 193.132L108.928 193.434C108.076 192.609 107.032 192.28 105.891 192.28C103.322 192.28 101.386 194.203 101.386 196.718C101.386 199.231 103.322 201.156 105.891 201.156C107.032 201.156 108.076 200.813 108.928 199.988L109.216 200.29C108.378 201.156 107.183 201.582 105.878 201.582C103.049 201.58 100.919 199.505 100.919 196.716Z" />
<path d="M111.595 197.471V191.908H112.062V197.458C112.062 199.944 113.257 201.154 115.373 201.154C117.474 201.154 118.684 199.946 118.684 197.458V191.908H119.137V197.471C119.137 200.205 117.708 201.578 115.373 201.578C113.038 201.58 111.595 200.205 111.595 197.471Z" />
<path d="M122.572 191.908H123.039V201.098H128.672V201.524H122.572V191.908Z" />
<path d="M131.503 192.334H127.973V191.908H135.487V192.334H131.957V201.524H131.504V192.334H131.503Z" />
<path d="M137.013 197.471V191.908H137.48V197.458C137.48 199.944 138.675 201.154 140.791 201.154C142.892 201.154 144.102 199.946 144.102 197.458V191.908H144.555V197.471C144.555 200.205 143.126 201.578 140.791 201.578C138.456 201.58 137.013 200.205 137.013 197.471Z" />
<path d="M154.75 201.524L152.374 198.213C152.058 198.267 151.7 198.296 151.33 198.296H148.458V201.524H147.992V191.908H151.33C153.719 191.908 155.148 193.089 155.148 195.095C155.148 196.648 154.31 197.706 152.84 198.104L155.299 201.524H154.75ZM151.355 197.87C153.512 197.87 154.694 196.867 154.694 195.095C154.694 193.337 153.512 192.334 151.355 192.334H148.457V197.87H151.355Z" />
<path d="M164.352 201.098V201.524H157.854V191.908H164.158V192.334H158.32V196.428H163.541V196.854H158.32V201.098H164.352Z" />
<path d="M166.03 200.248L166.278 199.919C166.896 200.62 168.119 201.169 169.452 201.169C171.471 201.169 172.364 200.25 172.364 199.136C172.364 196.059 166.305 197.886 166.305 194.328C166.305 193.037 167.295 191.856 169.589 191.856C170.646 191.856 171.719 192.199 172.434 192.735L172.228 193.105C171.459 192.541 170.47 192.266 169.604 192.266C167.654 192.266 166.76 193.2 166.76 194.327C166.76 197.417 172.819 195.632 172.819 199.121C172.819 200.426 171.789 201.58 169.467 201.58C168.05 201.58 166.702 201.03 166.03 200.248Z" />
<path d="M175.605 201.114C175.605 201.292 175.565 201.402 175.522 201.623L175.028 203.464H174.672L175.098 201.568C174.864 201.528 174.699 201.348 174.699 201.115C174.699 200.868 174.891 200.662 175.152 200.662C175.427 200.659 175.605 200.893 175.605 201.114Z" />
<path d="M180.69 200.248L180.938 199.919C181.555 200.62 182.779 201.169 184.111 201.169C186.131 201.169 187.024 200.25 187.024 199.136C187.024 196.059 180.965 197.886 180.965 194.328C180.965 193.037 181.954 191.856 184.249 191.856C185.306 191.856 186.379 192.199 187.093 192.735L186.888 193.105C186.119 192.541 185.13 192.266 184.264 192.266C182.314 192.266 181.42 193.2 181.42 194.327C181.42 197.417 187.478 195.632 187.478 199.121C187.478 200.426 186.448 201.58 184.127 201.58C182.708 201.58 181.362 201.03 180.69 200.248Z" />
<path d="M197.669 191.908V201.524H197.203V196.854H190.458V201.524H189.992V191.908H190.458V196.428H197.203V191.908H197.669Z" />
<path d="M207.08 198.709H201.324L200.032 201.524H199.523L203.974 191.908H204.428L208.879 201.524H208.372L207.08 198.709ZM206.902 198.31L204.21 192.444L201.503 198.31H206.902Z" />
<path d="M217.509 201.524L215.133 198.213C214.817 198.267 214.459 198.296 214.089 198.296H211.218V201.524H210.751V191.908H214.089C216.479 191.908 217.908 193.089 217.908 195.095C217.908 196.648 217.069 197.706 215.6 198.104L218.059 201.524H217.509ZM214.116 197.87C216.273 197.87 217.455 196.867 217.455 195.095C217.455 193.337 216.273 192.334 214.116 192.334H211.218V197.87H214.116Z" />
<path d="M220.615 191.908H221.081V201.524H220.615V191.908Z" />
<path d="M232.279 191.908V201.524H231.894L225.066 192.76V201.524H224.6V191.908H224.985L231.812 200.672V191.908H232.279Z" />
<path d="M242.748 196.786H243.188V200.343C242.336 201.168 241.128 201.58 239.822 201.58C236.951 201.58 234.823 199.506 234.823 196.718C234.823 193.93 236.953 191.856 239.822 191.856C241.168 191.856 242.363 192.268 243.201 193.12L242.926 193.436C242.061 192.597 241.017 192.282 239.836 192.282C237.226 192.282 235.289 194.205 235.289 196.72C235.289 199.233 237.226 201.158 239.836 201.158C240.936 201.158 241.952 200.869 242.748 200.155V196.786Z" />
<path d="M257.586 191.908V201.524H257.12V196.854H250.375V201.524H249.909V191.908H250.375V196.428H257.12V191.908H257.586Z" />
<path d="M260.128 196.716C260.128 193.928 262.258 191.854 265.087 191.854C267.932 191.854 270.06 193.928 270.06 196.716C270.06 199.505 267.93 201.578 265.087 201.578C262.258 201.58 260.128 199.505 260.128 196.716ZM269.593 196.716C269.593 194.174 267.657 192.278 265.087 192.278C262.532 192.278 260.595 194.174 260.595 196.716C260.595 199.257 262.532 201.154 265.087 201.154C267.657 201.154 269.593 199.259 269.593 196.716Z" />
<path d="M281.767 201.524L281.753 192.855L277.536 200.19H277.288L273.057 192.883V201.523H272.604V191.907H272.989L277.412 199.6L281.821 191.907H282.206L282.22 201.523H281.767V201.524Z" />
<path d="M292.236 201.098V201.524H285.738V191.908H292.043V192.334H286.204V196.428H291.425V196.854H286.204V201.098H292.236Z" />
<path d="M293.913 200.248L294.161 199.919C294.779 200.62 296.002 201.169 297.334 201.169C299.354 201.169 300.247 200.25 300.247 199.136C300.247 196.059 294.188 197.886 294.188 194.328C294.188 193.037 295.177 191.856 297.472 191.856C298.529 191.856 299.602 192.199 300.316 192.735L300.111 193.105C299.342 192.541 298.353 192.266 297.487 192.266C295.537 192.266 294.643 193.2 294.643 194.327C294.643 197.417 300.702 195.632 300.702 199.121C300.702 200.426 299.671 201.58 297.35 201.58C295.933 201.58 294.587 201.03 293.913 200.248Z" />
<path d="M17.7484 179.818V181.417H0.967285V157.097H17.2273V158.696H2.73907V168.285H15.6982V169.848H2.73907V179.818H17.7484Z" />
<path d="M39.1491 181.417L30.7755 170.16L22.4376 181.417H20.3535L29.6995 168.875L21.0137 157.097H23.0978L30.8451 167.555L38.5924 157.097H40.5729L31.8871 168.839L41.2331 181.417H39.1491Z" />
<path d="M43.0063 169.255C43.0063 162.168 48.3913 156.922 55.6176 156.922C59.0577 156.922 62.1498 158.034 64.2678 160.293L63.1562 161.44C61.0721 159.39 58.535 158.557 55.6872 158.557C49.469 158.557 44.7781 163.142 44.7781 169.257C44.7781 175.372 49.469 179.957 55.6872 179.957C58.5366 179.957 61.0721 179.088 63.1562 177.038L64.2678 178.186C62.1481 180.444 59.056 181.59 55.6176 181.59C48.3913 181.59 43.0063 176.344 43.0063 169.255Z" />
<path d="M90.0131 157.095V181.415H88.2413V169.846H71.9813V181.415H70.2095V157.095H71.9813V168.283H88.2413V157.095H90.0131Z" />
<path d="M113.534 174.572H99.4289L96.3367 181.417H94.4258L105.613 157.097H107.385L118.572 181.417H116.661L113.534 174.572ZM112.873 173.077L106.48 159.042L100.123 173.077H112.873Z" />
<path d="M142.787 157.095V181.415H141.327L124.755 160.291V181.415H122.983V157.095H124.476L141.015 178.219V157.095H142.787Z" />
<path d="M168.636 169.361H170.338V178.464C168.149 180.548 164.987 181.59 161.652 181.59C154.321 181.59 148.936 176.344 148.936 169.257C148.936 162.17 154.32 156.924 161.686 156.924C165.196 156.924 168.288 158.036 170.441 160.259L169.33 161.44C167.21 159.356 164.675 158.557 161.722 158.557C155.398 158.557 150.709 163.142 150.709 169.257C150.709 175.338 155.4 179.957 161.722 179.957C164.293 179.957 166.655 179.331 168.636 177.734V169.361Z" />
<path d="M194.902 179.818V181.417H178.121V157.097H194.381V158.696H179.892V168.285H192.852V169.848H179.892V179.818H194.902Z" />
<path d="M231.624 157.095V181.415H225.961L215.225 168.456V181.415H208.485V157.095H214.149L224.885 170.055V157.095H231.624Z" />
<path d="M256.013 176.1V181.415H236.488V157.095H255.562V162.411H243.298V166.511H254.104V171.653H243.298V176.1H256.013Z" />
<path d="M258.133 179.228L260.392 174.155C262.545 175.579 265.604 176.553 268.417 176.553C271.267 176.553 272.378 175.754 272.378 174.572C272.378 170.717 258.55 173.53 258.55 164.497C258.55 160.154 262.094 156.61 269.32 156.61C272.482 156.61 275.747 157.34 278.145 158.73L276.025 163.836C273.697 162.586 271.404 161.959 269.286 161.959C266.403 161.959 265.361 162.932 265.361 164.149C265.361 167.865 279.153 165.087 279.153 174.05C279.153 178.289 275.61 181.902 268.383 181.902C264.387 181.902 260.426 180.826 258.133 179.228Z" />
<path d="M287.143 162.55H279.674V157.095H301.458V162.55H294.022V181.415H287.143V162.55Z" />
<mask id="path-44-inside-1_197_2824" fill="white">
<path d="M131.53 3.96643C133.678 4.89984 135.696 6.01485 137.57 7.38442C138.771 8.26183 139.898 9.22749 140.862 10.3679C141.953 11.6595 142.804 13.0765 143.133 14.7601C143.51 16.6897 143.078 18.4734 142.138 20.1603C141.534 21.2448 140.764 22.2053 139.876 23.1286C139.681 22.5346 139.562 21.9626 139.571 21.372C139.588 20.1637 139.601 18.9554 139.64 17.7487C139.694 16.0753 139.199 14.5496 138.42 13.0986C137.573 11.5237 136.504 10.1066 135.297 8.79133C135.104 8.58088 134.895 8.38742 134.673 8.1634C134.717 8.24146 134.749 8.30425 134.786 8.36196C136.394 10.7837 137.795 13.3074 138.493 16.1551C138.695 16.9799 138.775 17.8454 138.824 18.6974C138.905 20.1281 139.031 21.5468 139.46 22.9843C139.335 22.9351 139.246 22.9045 139.16 22.8672C137.159 22.0322 135.328 20.9274 133.816 19.3559C131.915 17.3804 131.032 15.052 131.331 12.2789C131.589 9.89445 131.771 7.50152 131.648 5.09841C131.628 4.73353 131.572 4.36865 131.53 3.96643Z"/>
<path d="M261.121 120.176L261.323 117.892C260.045 117.78 258.708 117.466 257.342 117.001C258.102 116.609 258.864 116.215 259.626 115.815L258.713 114.074C257.439 114.742 256.173 115.392 254.91 116.03C248.702 113.222 242.251 107.898 238.127 104.134C242.148 101.442 246.178 98.6231 250.214 95.6599L249.051 94.0748C244.856 97.1534 240.722 100.04 236.646 102.756C234.87 101.074 233.788 99.9383 233.747 99.8942L232.08 101.469C232.233 101.632 233.177 102.623 234.684 104.069C234.46 104.212 234.205 104.303 233.954 104.385C233.996 104.407 234.037 104.429 234.08 104.451C231.968 105.827 229.874 107.16 227.797 108.444C203.637 94.2802 181.988 75.6356 166.256 60.3786C158.996 53.3372 152.492 46.5454 146.938 40.4731C154.293 28.4881 160.007 16.7848 163.989 5.5244L162.135 4.86932C158.001 16.5607 152.212 28.0265 145.539 38.9372C143.905 37.1366 142.361 35.4055 140.91 33.7576C147.445 22.7603 152.584 12.0125 156.25 1.63971L154.397 0.984619C150.624 11.6561 145.473 22.1375 139.528 32.1827C131.004 22.4175 126.077 15.9464 125.99 15.831L124.424 17.0173C124.514 17.1344 129.632 23.86 138.469 33.9562C124.431 57.2033 106.287 77.9963 91.3759 93.2042C85.0914 99.6142 79.0039 105.427 73.4509 110.51C67.4771 105.23 64.4511 101.386 64.3832 101.298L62.827 102.499C62.8966 102.589 65.9565 106.484 71.9914 111.838C67.3973 116.008 63.2038 119.654 59.6127 122.688C49.0719 116.185 43.4884 110.433 43.3865 110.326L41.9644 111.682C42.1612 111.889 46.9064 116.828 56.0793 122.81C56.6919 123.211 57.3368 123.622 58.0072 124.039C51.1916 129.745 46.9233 132.959 46.83 133.029L48.0078 134.602C48.1045 134.531 52.6171 131.131 59.7756 125.12C61.4761 126.138 63.3327 127.194 65.3438 128.258C58.7641 133.753 54.6588 136.844 54.5671 136.912L55.7449 138.485C55.84 138.414 60.2372 135.104 67.2344 129.237C75.0937 133.229 85.0609 137.244 96.8796 139.905C106.504 142.073 116.413 143.157 126.552 143.157C131.261 143.157 136.022 142.919 140.823 142.451C147.017 143.252 153.344 143.656 159.79 143.656C164.145 143.656 168.552 143.473 173.009 143.104C196.952 141.129 222.356 133.799 248.671 121.293C252.098 122.765 255.492 124.09 258.846 125.263L259.494 123.408C256.66 122.417 253.837 121.33 251.034 120.159C252.218 119.584 253.406 118.995 254.594 118.398C256.819 119.345 259.025 119.993 261.121 120.176ZM92.7556 94.6026C106.65 80.4351 118.771 66.181 128.779 52.2358C132.811 46.6167 136.502 41.045 139.845 35.5311C141.295 37.1722 142.837 38.8948 144.463 40.6835C130.69 62.7766 113.415 82.5005 99.113 97.0872C92.2855 104.05 85.6922 110.308 79.7625 115.691C78.006 114.35 76.4005 113.045 74.9444 111.805C80.4702 106.744 86.517 100.965 92.7556 94.6026ZM66.9866 126.88C64.9993 125.841 63.1325 124.794 61.3895 123.761C64.928 120.76 69.0215 117.195 73.4866 113.138C74.9393 114.381 76.538 115.688 78.286 117.03C74.0992 120.796 70.2807 124.1 66.9866 126.88ZM97.4278 138.013C86.2608 135.508 76.7111 131.773 68.8823 127.849C72.1221 125.107 75.8354 121.884 79.8813 118.233C87.7339 124.063 98.2899 130.435 111.549 135.315C118.136 137.738 124.933 139.636 131.915 141.005C118.667 141.538 107.12 140.187 97.4278 138.013ZM140.713 140.389C129.799 138.975 120.33 136.445 112.337 133.512C99.393 128.762 89.0695 122.576 81.3629 116.894C87.24 111.55 93.7535 105.361 100.494 98.489C114.389 84.3198 126.51 70.0657 136.517 56.1222C139.869 51.4534 142.983 46.8152 145.86 42.216C151.352 48.2035 157.745 54.8714 164.863 61.7753C179.188 75.6696 193.6 87.7887 207.698 97.7983C213.814 102.141 219.878 106.087 225.869 109.629C193.13 129.512 164.501 138.016 140.713 140.389ZM149.981 141.283C154.072 140.64 158.19 139.834 162.332 138.86C183.601 133.852 205.543 124.428 227.814 110.763C234.057 114.372 240.221 117.537 246.278 120.246C207.569 138.347 175.383 142.911 149.981 141.283ZM248.631 119.129C242.212 116.329 235.894 113.101 229.731 109.569C231.853 108.246 233.976 106.888 236.104 105.488C236.16 105.515 236.22 105.544 236.276 105.573C240.135 109.132 246.165 114.181 252.325 117.329C251.088 117.941 249.856 118.544 248.631 119.129Z"/>
<path d="M46.3039 97.5335C48.6306 97.8017 50.8861 98.282 53.0771 99.0473C54.4823 99.5378 55.84 100.134 57.0941 100.945C58.5129 101.863 59.7382 102.973 60.5427 104.488C61.4642 106.224 61.5694 108.057 61.1604 109.945C60.8974 111.158 60.4392 112.3 59.8587 113.442C59.499 112.931 59.2189 112.419 59.0543 111.85C58.7183 110.69 58.3806 109.529 58.0683 108.363C57.6338 106.745 56.7174 105.43 55.5481 104.269C54.2803 103.008 52.8446 101.963 51.3087 101.055C51.0626 100.911 50.8063 100.785 50.528 100.636C50.5942 100.697 50.6417 100.748 50.6943 100.792C52.9362 102.642 55.0101 104.65 56.5052 107.171C56.938 107.903 57.2672 108.707 57.5608 109.508C58.0547 110.854 58.5876 112.175 59.4158 113.425C59.2817 113.415 59.1884 113.41 59.095 113.402C56.9363 113.184 54.8641 112.658 52.9617 111.594C50.5687 110.257 49.0464 108.285 48.5271 105.544C48.0808 103.188 47.558 100.845 46.7434 98.5806C46.6212 98.2378 46.4617 97.9069 46.3039 97.5335Z"/>
<path d="M99.9378 43.3836C102.146 42.603 104.383 42.0429 106.687 41.7663C108.165 41.5898 109.647 41.527 111.13 41.7052C112.809 41.9072 114.397 42.3637 115.785 43.3718C117.376 44.5258 118.277 46.1262 118.738 48.0015C119.035 49.2081 119.125 50.4352 119.107 51.7148C118.559 51.4144 118.082 51.0767 117.685 50.6371C116.873 49.7411 116.06 48.8484 115.266 47.9387C114.165 46.6761 112.763 45.8988 111.203 45.3693C109.51 44.794 107.762 44.4851 105.983 44.3459C105.7 44.3239 105.413 44.3239 105.099 44.3137C105.185 44.3408 105.25 44.3646 105.318 44.3799C108.143 45.057 110.891 45.948 113.342 47.5552C114.053 48.0219 114.701 48.6006 115.317 49.1895C116.352 50.1806 117.411 51.1344 118.706 51.893C118.581 51.9439 118.496 51.9795 118.408 52.0118C116.373 52.7653 114.282 53.2049 112.104 53.0844C109.369 52.935 107.134 51.8319 105.462 49.5985C104.026 47.679 102.526 45.8037 100.8 44.1287C100.533 43.8775 100.245 43.6484 99.9378 43.3836Z"/>
<path d="M118.55 36.7479C119.764 37.4421 120.889 38.2346 121.912 39.1697C122.569 39.7688 123.173 40.4154 123.672 41.1553C124.235 41.992 124.648 42.8898 124.733 43.9098C124.831 45.0791 124.458 46.1092 123.791 47.0494C123.361 47.6536 122.842 48.1729 122.255 48.6634C122.177 48.2985 122.145 47.9506 122.187 47.601C122.275 46.8848 122.362 46.1686 122.464 45.4558C122.604 44.4664 122.411 43.5296 122.041 42.6166C121.641 41.6271 121.099 40.7158 120.47 39.8571C120.369 39.7196 120.257 39.5906 120.14 39.4447C120.162 39.4939 120.176 39.5329 120.195 39.5702C120.991 41.1112 121.657 42.7014 121.887 44.4359C121.953 44.9382 121.944 45.4575 121.917 45.9667C121.873 46.822 121.854 47.6706 122.016 48.5531C121.944 48.5157 121.893 48.492 121.846 48.4648C120.712 47.8386 119.699 47.0647 118.903 46.0329C117.903 44.738 117.532 43.2971 117.89 41.6713C118.199 40.2728 118.462 38.8642 118.545 37.4302C118.56 37.2096 118.55 36.9906 118.55 36.7479Z"/>
<path d="M167.454 45.6425C168.725 46.5861 169.883 47.6298 170.908 48.8178C171.565 49.5798 172.159 50.3876 172.618 51.2871C173.139 52.3037 173.481 53.3678 173.44 54.5269C173.392 55.8541 172.834 56.9623 171.958 57.9296C171.395 58.5508 170.74 59.065 170.015 59.5368C169.978 59.1159 169.986 58.7222 170.083 58.3335C170.28 57.541 170.473 56.7467 170.684 55.9593C170.976 54.8646 170.884 53.7853 170.592 52.711C170.276 51.5434 169.789 50.4471 169.197 49.3965C169.102 49.2285 168.995 49.069 168.881 48.8874C168.898 48.9451 168.91 48.9909 168.926 49.0351C169.613 50.8747 170.149 52.7517 170.171 54.734C170.178 55.3093 170.098 55.8897 170 56.4582C169.833 57.412 169.699 58.3658 169.762 59.379C169.688 59.328 169.633 59.2941 169.582 59.2568C168.393 58.3997 167.357 57.3916 166.602 56.1256C165.654 54.5337 165.429 52.8654 166.051 51.0852C166.585 49.5561 167.072 48.0066 167.359 46.4062C167.403 46.1618 167.422 45.9141 167.454 45.6425Z"/>
<path d="M235.04 87.0233C236.311 87.9669 237.469 89.0106 238.494 90.1986C239.15 90.9606 239.744 91.7684 240.204 92.6679C240.725 93.6845 241.067 94.7486 241.026 95.9077C240.978 97.2348 240.42 98.343 239.544 99.3104C238.981 99.9315 238.326 100.446 237.601 100.918C237.564 100.497 237.572 100.103 237.669 99.7143C237.866 98.9218 238.059 98.1275 238.27 97.34C238.562 96.2471 238.47 95.166 238.178 94.0918C237.862 92.9241 237.375 91.8278 236.783 90.7773C236.688 90.6093 236.581 90.4498 236.467 90.2682C236.484 90.3259 236.496 90.3717 236.511 90.4158C237.199 92.2555 237.735 94.1325 237.757 96.1147C237.764 96.69 237.684 97.2705 237.586 97.839C237.419 98.7928 237.285 99.7466 237.348 100.76C237.273 100.709 237.219 100.675 237.168 100.638C235.979 99.7805 234.943 98.7724 234.188 97.5064C233.239 95.9145 233.015 94.2462 233.637 92.4659C234.171 90.9368 234.658 89.3874 234.945 87.787C234.987 87.5426 235.006 87.2948 235.04 87.0233Z"/>
<path d="M178.105 53.6784C178.173 54.6067 178.153 55.5214 178.017 56.4345C177.93 57.02 177.798 57.5936 177.574 58.1435C177.321 58.7663 176.978 59.3264 176.447 59.7523C175.838 60.2411 175.13 60.4176 174.363 60.3989C173.869 60.3871 173.391 60.292 172.902 60.1512C173.075 59.973 173.253 59.8253 173.464 59.7201C173.891 59.5028 174.319 59.2856 174.752 59.0769C175.351 58.7867 175.795 58.3318 176.162 57.7905C176.561 57.2016 176.861 56.5652 177.102 55.8965C177.141 55.7896 177.17 55.6809 177.207 55.5605C177.189 55.591 177.172 55.6131 177.158 55.6368C176.603 56.6483 175.974 57.6072 175.1 58.3777C174.847 58.6017 174.557 58.7884 174.266 58.9632C173.778 59.2551 173.302 59.5623 172.875 59.978C172.868 59.9254 172.863 59.8881 172.861 59.8508C172.786 58.992 172.837 58.1452 173.111 57.3221C173.455 56.2885 174.112 55.5486 175.142 55.143C176.028 54.7934 176.904 54.4166 177.727 53.9295C177.854 53.8532 177.973 53.7666 178.105 53.6784Z"/>
<path d="M148.321 76.5012C147.995 76.4859 147.667 76.4757 147.338 76.4757C147.009 76.4757 146.681 76.4842 146.356 76.5012C135.822 77.0154 127.409 85.7453 127.409 96.4049C127.409 96.4541 127.412 96.5017 127.412 96.5509C127.414 96.8801 127.424 97.2077 127.443 97.5335C127.462 97.8627 127.487 98.1903 127.523 98.5161C128.548 108.195 136.528 115.828 146.356 116.307C146.681 116.322 147.009 116.332 147.338 116.332C147.667 116.332 147.995 116.324 148.321 116.307C158.149 115.827 166.129 108.195 167.154 98.5161C167.188 98.1903 167.215 97.8627 167.234 97.5335C167.252 97.2077 167.261 96.8801 167.264 96.5509C167.264 96.5017 167.267 96.4541 167.267 96.4049C167.266 85.7453 158.853 77.0154 148.321 76.5012ZM129.374 96.4049C129.374 86.8298 136.904 78.9823 146.354 78.4698V96.5509H129.378C129.378 96.5017 129.374 96.4541 129.374 96.4049ZM129.503 98.5161H146.356V114.338C137.61 113.865 130.515 107.109 129.503 98.5161ZM148.321 114.34V98.5178H165.173C164.16 107.109 157.064 113.865 148.321 114.34ZM148.321 96.5509V78.4698C157.77 78.9823 165.301 86.8298 165.301 96.4049C165.301 96.4541 165.297 96.5017 165.297 96.5509H148.321Z"/>
</mask>
<path d="M131.53 3.96643C133.678 4.89984 135.696 6.01485 137.57 7.38442C138.771 8.26183 139.898 9.22749 140.862 10.3679C141.953 11.6595 142.804 13.0765 143.133 14.7601C143.51 16.6897 143.078 18.4734 142.138 20.1603C141.534 21.2448 140.764 22.2053 139.876 23.1286C139.681 22.5346 139.562 21.9626 139.571 21.372C139.588 20.1637 139.601 18.9554 139.64 17.7487C139.694 16.0753 139.199 14.5496 138.42 13.0986C137.573 11.5237 136.504 10.1066 135.297 8.79133C135.104 8.58088 134.895 8.38742 134.673 8.1634C134.717 8.24146 134.749 8.30425 134.786 8.36196C136.394 10.7837 137.795 13.3074 138.493 16.1551C138.695 16.9799 138.775 17.8454 138.824 18.6974C138.905 20.1281 139.031 21.5468 139.46 22.9843C139.335 22.9351 139.246 22.9045 139.16 22.8672C137.159 22.0322 135.328 20.9274 133.816 19.3559C131.915 17.3804 131.032 15.052 131.331 12.2789C131.589 9.89445 131.771 7.50152 131.648 5.09841C131.628 4.73353 131.572 4.36865 131.53 3.96643Z" />
<path d="M261.121 120.176L261.323 117.892C260.045 117.78 258.708 117.466 257.342 117.001C258.102 116.609 258.864 116.215 259.626 115.815L258.713 114.074C257.439 114.742 256.173 115.392 254.91 116.03C248.702 113.222 242.251 107.898 238.127 104.134C242.148 101.442 246.178 98.6231 250.214 95.6599L249.051 94.0748C244.856 97.1534 240.722 100.04 236.646 102.756C234.87 101.074 233.788 99.9383 233.747 99.8942L232.08 101.469C232.233 101.632 233.177 102.623 234.684 104.069C234.46 104.212 234.205 104.303 233.954 104.385C233.996 104.407 234.037 104.429 234.08 104.451C231.968 105.827 229.874 107.16 227.797 108.444C203.637 94.2802 181.988 75.6356 166.256 60.3786C158.996 53.3372 152.492 46.5454 146.938 40.4731C154.293 28.4881 160.007 16.7848 163.989 5.5244L162.135 4.86932C158.001 16.5607 152.212 28.0265 145.539 38.9372C143.905 37.1366 142.361 35.4055 140.91 33.7576C147.445 22.7603 152.584 12.0125 156.25 1.63971L154.397 0.984619C150.624 11.6561 145.473 22.1375 139.528 32.1827C131.004 22.4175 126.077 15.9464 125.99 15.831L124.424 17.0173C124.514 17.1344 129.632 23.86 138.469 33.9562C124.431 57.2033 106.287 77.9963 91.3759 93.2042C85.0914 99.6142 79.0039 105.427 73.4509 110.51C67.4771 105.23 64.4511 101.386 64.3832 101.298L62.827 102.499C62.8966 102.589 65.9565 106.484 71.9914 111.838C67.3973 116.008 63.2038 119.654 59.6127 122.688C49.0719 116.185 43.4884 110.433 43.3865 110.326L41.9644 111.682C42.1612 111.889 46.9064 116.828 56.0793 122.81C56.6919 123.211 57.3368 123.622 58.0072 124.039C51.1916 129.745 46.9233 132.959 46.83 133.029L48.0078 134.602C48.1045 134.531 52.6171 131.131 59.7756 125.12C61.4761 126.138 63.3327 127.194 65.3438 128.258C58.7641 133.753 54.6588 136.844 54.5671 136.912L55.7449 138.485C55.84 138.414 60.2372 135.104 67.2344 129.237C75.0937 133.229 85.0609 137.244 96.8796 139.905C106.504 142.073 116.413 143.157 126.552 143.157C131.261 143.157 136.022 142.919 140.823 142.451C147.017 143.252 153.344 143.656 159.79 143.656C164.145 143.656 168.552 143.473 173.009 143.104C196.952 141.129 222.356 133.799 248.671 121.293C252.098 122.765 255.492 124.09 258.846 125.263L259.494 123.408C256.66 122.417 253.837 121.33 251.034 120.159C252.218 119.584 253.406 118.995 254.594 118.398C256.819 119.345 259.025 119.993 261.121 120.176ZM92.7556 94.6026C106.65 80.4351 118.771 66.181 128.779 52.2358C132.811 46.6167 136.502 41.045 139.845 35.5311C141.295 37.1722 142.837 38.8948 144.463 40.6835C130.69 62.7766 113.415 82.5005 99.113 97.0872C92.2855 104.05 85.6922 110.308 79.7625 115.691C78.006 114.35 76.4005 113.045 74.9444 111.805C80.4702 106.744 86.517 100.965 92.7556 94.6026ZM66.9866 126.88C64.9993 125.841 63.1325 124.794 61.3895 123.761C64.928 120.76 69.0215 117.195 73.4866 113.138C74.9393 114.381 76.538 115.688 78.286 117.03C74.0992 120.796 70.2807 124.1 66.9866 126.88ZM97.4278 138.013C86.2608 135.508 76.7111 131.773 68.8823 127.849C72.1221 125.107 75.8354 121.884 79.8813 118.233C87.7339 124.063 98.2899 130.435 111.549 135.315C118.136 137.738 124.933 139.636 131.915 141.005C118.667 141.538 107.12 140.187 97.4278 138.013ZM140.713 140.389C129.799 138.975 120.33 136.445 112.337 133.512C99.393 128.762 89.0695 122.576 81.3629 116.894C87.24 111.55 93.7535 105.361 100.494 98.489C114.389 84.3198 126.51 70.0657 136.517 56.1222C139.869 51.4534 142.983 46.8152 145.86 42.216C151.352 48.2035 157.745 54.8714 164.863 61.7753C179.188 75.6696 193.6 87.7887 207.698 97.7983C213.814 102.141 219.878 106.087 225.869 109.629C193.13 129.512 164.501 138.016 140.713 140.389ZM149.981 141.283C154.072 140.64 158.19 139.834 162.332 138.86C183.601 133.852 205.543 124.428 227.814 110.763C234.057 114.372 240.221 117.537 246.278 120.246C207.569 138.347 175.383 142.911 149.981 141.283ZM248.631 119.129C242.212 116.329 235.894 113.101 229.731 109.569C231.853 108.246 233.976 106.888 236.104 105.488C236.16 105.515 236.22 105.544 236.276 105.573C240.135 109.132 246.165 114.181 252.325 117.329C251.088 117.941 249.856 118.544 248.631 119.129Z" />
<path d="M46.3039 97.5335C48.6306 97.8017 50.8861 98.282 53.0771 99.0473C54.4823 99.5378 55.84 100.134 57.0941 100.945C58.5129 101.863 59.7382 102.973 60.5427 104.488C61.4642 106.224 61.5694 108.057 61.1604 109.945C60.8974 111.158 60.4392 112.3 59.8587 113.442C59.499 112.931 59.2189 112.419 59.0543 111.85C58.7183 110.69 58.3806 109.529 58.0683 108.363C57.6338 106.745 56.7174 105.43 55.5481 104.269C54.2803 103.008 52.8446 101.963 51.3087 101.055C51.0626 100.911 50.8063 100.785 50.528 100.636C50.5942 100.697 50.6417 100.748 50.6943 100.792C52.9362 102.642 55.0101 104.65 56.5052 107.171C56.938 107.903 57.2672 108.707 57.5608 109.508C58.0547 110.854 58.5876 112.175 59.4158 113.425C59.2817 113.415 59.1884 113.41 59.095 113.402C56.9363 113.184 54.8641 112.658 52.9617 111.594C50.5687 110.257 49.0464 108.285 48.5271 105.544C48.0808 103.188 47.558 100.845 46.7434 98.5806C46.6212 98.2378 46.4617 97.9069 46.3039 97.5335Z" />
<path d="M99.9378 43.3836C102.146 42.603 104.383 42.0429 106.687 41.7663C108.165 41.5898 109.647 41.527 111.13 41.7052C112.809 41.9072 114.397 42.3637 115.785 43.3718C117.376 44.5258 118.277 46.1262 118.738 48.0015C119.035 49.2081 119.125 50.4352 119.107 51.7148C118.559 51.4144 118.082 51.0767 117.685 50.6371C116.873 49.7411 116.06 48.8484 115.266 47.9387C114.165 46.6761 112.763 45.8988 111.203 45.3693C109.51 44.794 107.762 44.4851 105.983 44.3459C105.7 44.3239 105.413 44.3239 105.099 44.3137C105.185 44.3408 105.25 44.3646 105.318 44.3799C108.143 45.057 110.891 45.948 113.342 47.5552C114.053 48.0219 114.701 48.6006 115.317 49.1895C116.352 50.1806 117.411 51.1344 118.706 51.893C118.581 51.9439 118.496 51.9795 118.408 52.0118C116.373 52.7653 114.282 53.2049 112.104 53.0844C109.369 52.935 107.134 51.8319 105.462 49.5985C104.026 47.679 102.526 45.8037 100.8 44.1287C100.533 43.8775 100.245 43.6484 99.9378 43.3836Z" />
<path d="M118.55 36.7479C119.764 37.4421 120.889 38.2346 121.912 39.1697C122.569 39.7688 123.173 40.4154 123.672 41.1553C124.235 41.992 124.648 42.8898 124.733 43.9098C124.831 45.0791 124.458 46.1092 123.791 47.0494C123.361 47.6536 122.842 48.1729 122.255 48.6634C122.177 48.2985 122.145 47.9506 122.187 47.601C122.275 46.8848 122.362 46.1686 122.464 45.4558C122.604 44.4664 122.411 43.5296 122.041 42.6166C121.641 41.6271 121.099 40.7158 120.47 39.8571C120.369 39.7196 120.257 39.5906 120.14 39.4447C120.162 39.4939 120.176 39.5329 120.195 39.5702C120.991 41.1112 121.657 42.7014 121.887 44.4359C121.953 44.9382 121.944 45.4575 121.917 45.9667C121.873 46.822 121.854 47.6706 122.016 48.5531C121.944 48.5157 121.893 48.492 121.846 48.4648C120.712 47.8386 119.699 47.0647 118.903 46.0329C117.903 44.738 117.532 43.2971 117.89 41.6713C118.199 40.2728 118.462 38.8642 118.545 37.4302C118.56 37.2096 118.55 36.9906 118.55 36.7479Z" />
<path d="M167.454 45.6425C168.725 46.5861 169.883 47.6298 170.908 48.8178C171.565 49.5798 172.159 50.3876 172.618 51.2871C173.139 52.3037 173.481 53.3678 173.44 54.5269C173.392 55.8541 172.834 56.9623 171.958 57.9296C171.395 58.5508 170.74 59.065 170.015 59.5368C169.978 59.1159 169.986 58.7222 170.083 58.3335C170.28 57.541 170.473 56.7467 170.684 55.9593C170.976 54.8646 170.884 53.7853 170.592 52.711C170.276 51.5434 169.789 50.4471 169.197 49.3965C169.102 49.2285 168.995 49.069 168.881 48.8874C168.898 48.9451 168.91 48.9909 168.926 49.0351C169.613 50.8747 170.149 52.7517 170.171 54.734C170.178 55.3093 170.098 55.8897 170 56.4582C169.833 57.412 169.699 58.3658 169.762 59.379C169.688 59.328 169.633 59.2941 169.582 59.2568C168.393 58.3997 167.357 57.3916 166.602 56.1256C165.654 54.5337 165.429 52.8654 166.051 51.0852C166.585 49.5561 167.072 48.0066 167.359 46.4062C167.403 46.1618 167.422 45.9141 167.454 45.6425Z" />
<path d="M235.04 87.0233C236.311 87.9669 237.469 89.0106 238.494 90.1986C239.15 90.9606 239.744 91.7684 240.204 92.6679C240.725 93.6845 241.067 94.7486 241.026 95.9077C240.978 97.2348 240.42 98.343 239.544 99.3104C238.981 99.9315 238.326 100.446 237.601 100.918C237.564 100.497 237.572 100.103 237.669 99.7143C237.866 98.9218 238.059 98.1275 238.27 97.34C238.562 96.2471 238.47 95.166 238.178 94.0918C237.862 92.9241 237.375 91.8278 236.783 90.7773C236.688 90.6093 236.581 90.4498 236.467 90.2682C236.484 90.3259 236.496 90.3717 236.511 90.4158C237.199 92.2555 237.735 94.1325 237.757 96.1147C237.764 96.69 237.684 97.2705 237.586 97.839C237.419 98.7928 237.285 99.7466 237.348 100.76C237.273 100.709 237.219 100.675 237.168 100.638C235.979 99.7805 234.943 98.7724 234.188 97.5064C233.239 95.9145 233.015 94.2462 233.637 92.4659C234.171 90.9368 234.658 89.3874 234.945 87.787C234.987 87.5426 235.006 87.2948 235.04 87.0233Z" />
<path d="M178.105 53.6784C178.173 54.6067 178.153 55.5214 178.017 56.4345C177.93 57.02 177.798 57.5936 177.574 58.1435C177.321 58.7663 176.978 59.3264 176.447 59.7523C175.838 60.2411 175.13 60.4176 174.363 60.3989C173.869 60.3871 173.391 60.292 172.902 60.1512C173.075 59.973 173.253 59.8253 173.464 59.7201C173.891 59.5028 174.319 59.2856 174.752 59.0769C175.351 58.7867 175.795 58.3318 176.162 57.7905C176.561 57.2016 176.861 56.5652 177.102 55.8965C177.141 55.7896 177.17 55.6809 177.207 55.5605C177.189 55.591 177.172 55.6131 177.158 55.6368C176.603 56.6483 175.974 57.6072 175.1 58.3777C174.847 58.6017 174.557 58.7884 174.266 58.9632C173.778 59.2551 173.302 59.5623 172.875 59.978C172.868 59.9254 172.863 59.8881 172.861 59.8508C172.786 58.992 172.837 58.1452 173.111 57.3221C173.455 56.2885 174.112 55.5486 175.142 55.143C176.028 54.7934 176.904 54.4166 177.727 53.9295C177.854 53.8532 177.973 53.7666 178.105 53.6784Z" />
<path d="M148.321 76.5012C147.995 76.4859 147.667 76.4757 147.338 76.4757C147.009 76.4757 146.681 76.4842 146.356 76.5012C135.822 77.0154 127.409 85.7453 127.409 96.4049C127.409 96.4541 127.412 96.5017 127.412 96.5509C127.414 96.8801 127.424 97.2077 127.443 97.5335C127.462 97.8627 127.487 98.1903 127.523 98.5161C128.548 108.195 136.528 115.828 146.356 116.307C146.681 116.322 147.009 116.332 147.338 116.332C147.667 116.332 147.995 116.324 148.321 116.307C158.149 115.827 166.129 108.195 167.154 98.5161C167.188 98.1903 167.215 97.8627 167.234 97.5335C167.252 97.2077 167.261 96.8801 167.264 96.5509C167.264 96.5017 167.267 96.4541 167.267 96.4049C167.266 85.7453 158.853 77.0154 148.321 76.5012ZM129.374 96.4049C129.374 86.8298 136.904 78.9823 146.354 78.4698V96.5509H129.378C129.378 96.5017 129.374 96.4541 129.374 96.4049ZM129.503 98.5161H146.356V114.338C137.61 113.865 130.515 107.109 129.503 98.5161ZM148.321 114.34V98.5178H165.173C164.16 107.109 157.064 113.865 148.321 114.34ZM148.321 96.5509V78.4698C157.77 78.9823 165.301 86.8298 165.301 96.4049C165.301 96.4541 165.297 96.5017 165.297 96.5509H148.321Z" />
<path d="M131.53 3.96643C133.678 4.89984 135.696 6.01485 137.57 7.38442C138.771 8.26183 139.898 9.22749 140.862 10.3679C141.953 11.6595 142.804 13.0765 143.133 14.7601C143.51 16.6897 143.078 18.4734 142.138 20.1603C141.534 21.2448 140.764 22.2053 139.876 23.1286C139.681 22.5346 139.562 21.9626 139.571 21.372C139.588 20.1637 139.601 18.9554 139.64 17.7487C139.694 16.0753 139.199 14.5496 138.42 13.0986C137.573 11.5237 136.504 10.1066 135.297 8.79133C135.104 8.58088 134.895 8.38742 134.673 8.1634C134.717 8.24146 134.749 8.30425 134.786 8.36196C136.394 10.7837 137.795 13.3074 138.493 16.1551C138.695 16.9799 138.775 17.8454 138.824 18.6974C138.905 20.1281 139.031 21.5468 139.46 22.9843C139.335 22.9351 139.246 22.9045 139.16 22.8672C137.159 22.0322 135.328 20.9274 133.816 19.3559C131.915 17.3804 131.032 15.052 131.331 12.2789C131.589 9.89445 131.771 7.50152 131.648 5.09841C131.628 4.73353 131.572 4.36865 131.53 3.96643Z"  stroke-width="10" mask="url(#path-44-inside-1_197_2824)"/>
<path d="M261.121 120.176L261.323 117.892C260.045 117.78 258.708 117.466 257.342 117.001C258.102 116.609 258.864 116.215 259.626 115.815L258.713 114.074C257.439 114.742 256.173 115.392 254.91 116.03C248.702 113.222 242.251 107.898 238.127 104.134C242.148 101.442 246.178 98.6231 250.214 95.6599L249.051 94.0748C244.856 97.1534 240.722 100.04 236.646 102.756C234.87 101.074 233.788 99.9383 233.747 99.8942L232.08 101.469C232.233 101.632 233.177 102.623 234.684 104.069C234.46 104.212 234.205 104.303 233.954 104.385C233.996 104.407 234.037 104.429 234.08 104.451C231.968 105.827 229.874 107.16 227.797 108.444C203.637 94.2802 181.988 75.6356 166.256 60.3786C158.996 53.3372 152.492 46.5454 146.938 40.4731C154.293 28.4881 160.007 16.7848 163.989 5.5244L162.135 4.86932C158.001 16.5607 152.212 28.0265 145.539 38.9372C143.905 37.1366 142.361 35.4055 140.91 33.7576C147.445 22.7603 152.584 12.0125 156.25 1.63971L154.397 0.984619C150.624 11.6561 145.473 22.1375 139.528 32.1827C131.004 22.4175 126.077 15.9464 125.99 15.831L124.424 17.0173C124.514 17.1344 129.632 23.86 138.469 33.9562C124.431 57.2033 106.287 77.9963 91.3759 93.2042C85.0914 99.6142 79.0039 105.427 73.4509 110.51C67.4771 105.23 64.4511 101.386 64.3832 101.298L62.827 102.499C62.8966 102.589 65.9565 106.484 71.9914 111.838C67.3973 116.008 63.2038 119.654 59.6127 122.688C49.0719 116.185 43.4884 110.433 43.3865 110.326L41.9644 111.682C42.1612 111.889 46.9064 116.828 56.0793 122.81C56.6919 123.211 57.3368 123.622 58.0072 124.039C51.1916 129.745 46.9233 132.959 46.83 133.029L48.0078 134.602C48.1045 134.531 52.6171 131.131 59.7756 125.12C61.4761 126.138 63.3327 127.194 65.3438 128.258C58.7641 133.753 54.6588 136.844 54.5671 136.912L55.7449 138.485C55.84 138.414 60.2372 135.104 67.2344 129.237C75.0937 133.229 85.0609 137.244 96.8796 139.905C106.504 142.073 116.413 143.157 126.552 143.157C131.261 143.157 136.022 142.919 140.823 142.451C147.017 143.252 153.344 143.656 159.79 143.656C164.145 143.656 168.552 143.473 173.009 143.104C196.952 141.129 222.356 133.799 248.671 121.293C252.098 122.765 255.492 124.09 258.846 125.263L259.494 123.408C256.66 122.417 253.837 121.33 251.034 120.159C252.218 119.584 253.406 118.995 254.594 118.398C256.819 119.345 259.025 119.993 261.121 120.176ZM92.7556 94.6026C106.65 80.4351 118.771 66.181 128.779 52.2358C132.811 46.6167 136.502 41.045 139.845 35.5311C141.295 37.1722 142.837 38.8948 144.463 40.6835C130.69 62.7766 113.415 82.5005 99.113 97.0872C92.2855 104.05 85.6922 110.308 79.7625 115.691C78.006 114.35 76.4005 113.045 74.9444 111.805C80.4702 106.744 86.517 100.965 92.7556 94.6026ZM66.9866 126.88C64.9993 125.841 63.1325 124.794 61.3895 123.761C64.928 120.76 69.0215 117.195 73.4866 113.138C74.9393 114.381 76.538 115.688 78.286 117.03C74.0992 120.796 70.2807 124.1 66.9866 126.88ZM97.4278 138.013C86.2608 135.508 76.7111 131.773 68.8823 127.849C72.1221 125.107 75.8354 121.884 79.8813 118.233C87.7339 124.063 98.2899 130.435 111.549 135.315C118.136 137.738 124.933 139.636 131.915 141.005C118.667 141.538 107.12 140.187 97.4278 138.013ZM140.713 140.389C129.799 138.975 120.33 136.445 112.337 133.512C99.393 128.762 89.0695 122.576 81.3629 116.894C87.24 111.55 93.7535 105.361 100.494 98.489C114.389 84.3198 126.51 70.0657 136.517 56.1222C139.869 51.4534 142.983 46.8152 145.86 42.216C151.352 48.2035 157.745 54.8714 164.863 61.7753C179.188 75.6696 193.6 87.7887 207.698 97.7983C213.814 102.141 219.878 106.087 225.869 109.629C193.13 129.512 164.501 138.016 140.713 140.389ZM149.981 141.283C154.072 140.64 158.19 139.834 162.332 138.86C183.601 133.852 205.543 124.428 227.814 110.763C234.057 114.372 240.221 117.537 246.278 120.246C207.569 138.347 175.383 142.911 149.981 141.283ZM248.631 119.129C242.212 116.329 235.894 113.101 229.731 109.569C231.853 108.246 233.976 106.888 236.104 105.488C236.16 105.515 236.22 105.544 236.276 105.573C240.135 109.132 246.165 114.181 252.325 117.329C251.088 117.941 249.856 118.544 248.631 119.129Z"  stroke-width="10" mask="url(#path-44-inside-1_197_2824)"/>
<path d="M46.3039 97.5335C48.6306 97.8017 50.8861 98.282 53.0771 99.0473C54.4823 99.5378 55.84 100.134 57.0941 100.945C58.5129 101.863 59.7382 102.973 60.5427 104.488C61.4642 106.224 61.5694 108.057 61.1604 109.945C60.8974 111.158 60.4392 112.3 59.8587 113.442C59.499 112.931 59.2189 112.419 59.0543 111.85C58.7183 110.69 58.3806 109.529 58.0683 108.363C57.6338 106.745 56.7174 105.43 55.5481 104.269C54.2803 103.008 52.8446 101.963 51.3087 101.055C51.0626 100.911 50.8063 100.785 50.528 100.636C50.5942 100.697 50.6417 100.748 50.6943 100.792C52.9362 102.642 55.0101 104.65 56.5052 107.171C56.938 107.903 57.2672 108.707 57.5608 109.508C58.0547 110.854 58.5876 112.175 59.4158 113.425C59.2817 113.415 59.1884 113.41 59.095 113.402C56.9363 113.184 54.8641 112.658 52.9617 111.594C50.5687 110.257 49.0464 108.285 48.5271 105.544C48.0808 103.188 47.558 100.845 46.7434 98.5806C46.6212 98.2378 46.4617 97.9069 46.3039 97.5335Z"  stroke-width="10" mask="url(#path-44-inside-1_197_2824)"/>
<path d="M99.9378 43.3836C102.146 42.603 104.383 42.0429 106.687 41.7663C108.165 41.5898 109.647 41.527 111.13 41.7052C112.809 41.9072 114.397 42.3637 115.785 43.3718C117.376 44.5258 118.277 46.1262 118.738 48.0015C119.035 49.2081 119.125 50.4352 119.107 51.7148C118.559 51.4144 118.082 51.0767 117.685 50.6371C116.873 49.7411 116.06 48.8484 115.266 47.9387C114.165 46.6761 112.763 45.8988 111.203 45.3693C109.51 44.794 107.762 44.4851 105.983 44.3459C105.7 44.3239 105.413 44.3239 105.099 44.3137C105.185 44.3408 105.25 44.3646 105.318 44.3799C108.143 45.057 110.891 45.948 113.342 47.5552C114.053 48.0219 114.701 48.6006 115.317 49.1895C116.352 50.1806 117.411 51.1344 118.706 51.893C118.581 51.9439 118.496 51.9795 118.408 52.0118C116.373 52.7653 114.282 53.2049 112.104 53.0844C109.369 52.935 107.134 51.8319 105.462 49.5985C104.026 47.679 102.526 45.8037 100.8 44.1287C100.533 43.8775 100.245 43.6484 99.9378 43.3836Z"  stroke-width="10" mask="url(#path-44-inside-1_197_2824)"/>
<path d="M118.55 36.7479C119.764 37.4421 120.889 38.2346 121.912 39.1697C122.569 39.7688 123.173 40.4154 123.672 41.1553C124.235 41.992 124.648 42.8898 124.733 43.9098C124.831 45.0791 124.458 46.1092 123.791 47.0494C123.361 47.6536 122.842 48.1729 122.255 48.6634C122.177 48.2985 122.145 47.9506 122.187 47.601C122.275 46.8848 122.362 46.1686 122.464 45.4558C122.604 44.4664 122.411 43.5296 122.041 42.6166C121.641 41.6271 121.099 40.7158 120.47 39.8571C120.369 39.7196 120.257 39.5906 120.14 39.4447C120.162 39.4939 120.176 39.5329 120.195 39.5702C120.991 41.1112 121.657 42.7014 121.887 44.4359C121.953 44.9382 121.944 45.4575 121.917 45.9667C121.873 46.822 121.854 47.6706 122.016 48.5531C121.944 48.5157 121.893 48.492 121.846 48.4648C120.712 47.8386 119.699 47.0647 118.903 46.0329C117.903 44.738 117.532 43.2971 117.89 41.6713C118.199 40.2728 118.462 38.8642 118.545 37.4302C118.56 37.2096 118.55 36.9906 118.55 36.7479Z"  stroke-width="10" mask="url(#path-44-inside-1_197_2824)"/>
<path d="M167.454 45.6425C168.725 46.5861 169.883 47.6298 170.908 48.8178C171.565 49.5798 172.159 50.3876 172.618 51.2871C173.139 52.3037 173.481 53.3678 173.44 54.5269C173.392 55.8541 172.834 56.9623 171.958 57.9296C171.395 58.5508 170.74 59.065 170.015 59.5368C169.978 59.1159 169.986 58.7222 170.083 58.3335C170.28 57.541 170.473 56.7467 170.684 55.9593C170.976 54.8646 170.884 53.7853 170.592 52.711C170.276 51.5434 169.789 50.4471 169.197 49.3965C169.102 49.2285 168.995 49.069 168.881 48.8874C168.898 48.9451 168.91 48.9909 168.926 49.0351C169.613 50.8747 170.149 52.7517 170.171 54.734C170.178 55.3093 170.098 55.8897 170 56.4582C169.833 57.412 169.699 58.3658 169.762 59.379C169.688 59.328 169.633 59.2941 169.582 59.2568C168.393 58.3997 167.357 57.3916 166.602 56.1256C165.654 54.5337 165.429 52.8654 166.051 51.0852C166.585 49.5561 167.072 48.0066 167.359 46.4062C167.403 46.1618 167.422 45.9141 167.454 45.6425Z"  stroke-width="10" mask="url(#path-44-inside-1_197_2824)"/>
<path d="M235.04 87.0233C236.311 87.9669 237.469 89.0106 238.494 90.1986C239.15 90.9606 239.744 91.7684 240.204 92.6679C240.725 93.6845 241.067 94.7486 241.026 95.9077C240.978 97.2348 240.42 98.343 239.544 99.3104C238.981 99.9315 238.326 100.446 237.601 100.918C237.564 100.497 237.572 100.103 237.669 99.7143C237.866 98.9218 238.059 98.1275 238.27 97.34C238.562 96.2471 238.47 95.166 238.178 94.0918C237.862 92.9241 237.375 91.8278 236.783 90.7773C236.688 90.6093 236.581 90.4498 236.467 90.2682C236.484 90.3259 236.496 90.3717 236.511 90.4158C237.199 92.2555 237.735 94.1325 237.757 96.1147C237.764 96.69 237.684 97.2705 237.586 97.839C237.419 98.7928 237.285 99.7466 237.348 100.76C237.273 100.709 237.219 100.675 237.168 100.638C235.979 99.7805 234.943 98.7724 234.188 97.5064C233.239 95.9145 233.015 94.2462 233.637 92.4659C234.171 90.9368 234.658 89.3874 234.945 87.787C234.987 87.5426 235.006 87.2948 235.04 87.0233Z"  stroke-width="10" mask="url(#path-44-inside-1_197_2824)"/>
<path d="M178.105 53.6784C178.173 54.6067 178.153 55.5214 178.017 56.4345C177.93 57.02 177.798 57.5936 177.574 58.1435C177.321 58.7663 176.978 59.3264 176.447 59.7523C175.838 60.2411 175.13 60.4176 174.363 60.3989C173.869 60.3871 173.391 60.292 172.902 60.1512C173.075 59.973 173.253 59.8253 173.464 59.7201C173.891 59.5028 174.319 59.2856 174.752 59.0769C175.351 58.7867 175.795 58.3318 176.162 57.7905C176.561 57.2016 176.861 56.5652 177.102 55.8965C177.141 55.7896 177.17 55.6809 177.207 55.5605C177.189 55.591 177.172 55.6131 177.158 55.6368C176.603 56.6483 175.974 57.6072 175.1 58.3777C174.847 58.6017 174.557 58.7884 174.266 58.9632C173.778 59.2551 173.302 59.5623 172.875 59.978C172.868 59.9254 172.863 59.8881 172.861 59.8508C172.786 58.992 172.837 58.1452 173.111 57.3221C173.455 56.2885 174.112 55.5486 175.142 55.143C176.028 54.7934 176.904 54.4166 177.727 53.9295C177.854 53.8532 177.973 53.7666 178.105 53.6784Z"  stroke-width="10" mask="url(#path-44-inside-1_197_2824)"/>
<path d="M148.321 76.5012C147.995 76.4859 147.667 76.4757 147.338 76.4757C147.009 76.4757 146.681 76.4842 146.356 76.5012C135.822 77.0154 127.409 85.7453 127.409 96.4049C127.409 96.4541 127.412 96.5017 127.412 96.5509C127.414 96.8801 127.424 97.2077 127.443 97.5335C127.462 97.8627 127.487 98.1903 127.523 98.5161C128.548 108.195 136.528 115.828 146.356 116.307C146.681 116.322 147.009 116.332 147.338 116.332C147.667 116.332 147.995 116.324 148.321 116.307C158.149 115.827 166.129 108.195 167.154 98.5161C167.188 98.1903 167.215 97.8627 167.234 97.5335C167.252 97.2077 167.261 96.8801 167.264 96.5509C167.264 96.5017 167.267 96.4541 167.267 96.4049C167.266 85.7453 158.853 77.0154 148.321 76.5012ZM129.374 96.4049C129.374 86.8298 136.904 78.9823 146.354 78.4698V96.5509H129.378C129.378 96.5017 129.374 96.4541 129.374 96.4049ZM129.503 98.5161H146.356V114.338C137.61 113.865 130.515 107.109 129.503 98.5161ZM148.321 114.34V98.5178H165.173C164.16 107.109 157.064 113.865 148.321 114.34ZM148.321 96.5509V78.4698C157.77 78.9823 165.301 86.8298 165.301 96.4049C165.301 96.4541 165.297 96.5017 165.297 96.5509H148.321Z"  stroke-width="10" mask="url(#path-44-inside-1_197_2824)"/>
</svg>
