<svg width="52" height="40" viewBox="0 0 62 50" fill="" xmlns="http://www.w3.org/2000/svg">
<path d="M43.0255 38.2259C40.3665 38.2259 37.6845 38.1979 35.0255 38.2259C34.7623 38.2196 34.5116 38.1122 34.3255 37.926C34.1393 37.7398 34.0319 37.4891 34.0255 37.2259C34.0535 35.5769 34.3615 36.2259 36.0255 36.2259C40.7605 36.2259 45.2905 36.2399 50.0255 36.2259C55.2255 36.2119 59.1395 31.4159 59.0255 26.2259C59.0028 24.4286 58.4093 22.685 57.3308 21.247C56.2523 19.809 54.7446 18.751 53.0255 18.2259C52.7816 18.1702 52.5584 18.0469 52.3815 17.87C52.2046 17.6931 52.0812 17.4698 52.0255 17.2259C51.8462 15.9703 51.4167 14.7635 50.7626 13.6769C50.1084 12.5903 49.2428 11.6461 48.217 10.9001C47.1913 10.1541 46.0263 9.62155 44.791 9.33398C43.5557 9.0464 42.2753 9.00966 41.0255 9.22591C39.2765 9.48191 37.4335 9.15991 36.0255 10.2259C35.5985 10.5389 35.1965 10.6529 35.0255 10.2259C32.8355 4.87991 27.8125 2.15491 22.0255 2.22591C18.7747 2.31864 15.6674 3.58493 13.2777 5.79078C10.8881 7.99662 9.37762 10.9929 9.02554 14.2259C8.86203 15.2192 8.86203 16.2326 9.02554 17.2259C9.11054 17.6949 9.42554 18.0979 9.02554 18.2259C7.07235 18.8198 5.3509 20.0038 4.09754 21.6152C2.84419 23.2267 2.12039 25.1866 2.02554 27.2259C2.03083 29.6112 2.98073 31.8974 4.66742 33.584C6.3541 35.2707 8.64022 36.2206 11.0255 36.2259C16.1015 36.2539 20.9495 36.2539 26.0255 36.2259C26.1612 36.2074 26.2993 36.2205 26.4291 36.2642C26.5589 36.3079 26.6768 36.381 26.7736 36.4778C26.8704 36.5747 26.9436 36.6926 26.9873 36.8223C27.031 36.9521 27.0441 37.0902 27.0255 37.2259C26.9825 38.6909 27.5045 38.2259 26.0255 38.2259H12.0255C5.25754 38.2259 -0.429457 32.9659 0.0255431 26.2259C0.309543 21.9889 2.25754 19.2169 6.02554 17.2259C6.43754 17.0129 7.02554 16.7089 7.02554 16.2259C7.01154 8.07891 12.0345 1.67591 20.0255 0.22591C23.0846 -0.295216 26.2292 0.0898269 29.0722 1.33361C31.9151 2.57739 34.3321 4.62559 36.0255 7.22591C36.4095 7.82591 36.3575 7.49591 37.0255 7.22591C44.0065 4.43891 52.0495 8.94591 54.0255 16.2259C54.1395 16.6669 54.5985 16.0129 55.0255 16.2259C59.4045 18.3159 61.6085 23.6329 61.0255 28.2259C60.3715 33.3869 56.9875 37.2729 52.0255 38.2259C51.0284 38.3326 50.0227 38.3326 49.0255 38.2259C47.0345 38.2119 45.0155 38.2259 43.0255 38.2259Z" />
<path d="M30.0245 24.2259C27.6495 26.6149 25.2145 28.9789 23.0245 31.2259C22.5835 31.6669 22.4795 31.7259 22.0245 31.2259C20.9015 30.0169 20.8725 30.3779 22.0245 29.2259C24.8825 26.3679 27.1665 23.1119 30.0245 20.2259C30.3795 19.8709 30.5975 19.7989 31.0245 20.2259C34.1245 23.3679 37.8965 27.1259 41.0245 30.2259C41.4245 29.8989 41.3655 30.5669 41.0245 30.2259C40.5695 30.5959 39.5365 32.2259 39.0245 32.2259C38.5125 32.2259 38.4365 30.6379 38.0245 30.2259C36.1905 28.4059 34.8445 27.0459 33.0245 25.2259L32.0245 24.2259C31.8245 24.4959 32.0245 24.9839 32.0245 25.2259C32.0245 32.9889 31.9965 41.4629 32.0245 49.2259C32.0245 49.8659 31.6785 49.2539 31.0245 49.2259C29.5455 49.1829 30.0245 49.6909 30.0245 48.2259V25.2259C29.9965 25.0269 30.0245 24.7099 30.0245 24.2259Z" />
</svg>
