<svg width="" height="" viewBox="0 0 19 20" fill="" xmlns="http://www.w3.org/2000/svg">
  <path  d="M9.76083 9.94697C12.5308 9.94697 14.7747 7.87857 14.7747 5.32529C14.7747 2.77201 12.5308 0.703613 9.76083 0.703613C6.99087 0.703613 4.74695 2.77201 4.74695 5.32529C4.74695 7.87857 6.99087 9.94697 9.76083 9.94697ZM9.76083 2.55228C11.4231 2.55228 12.7692 3.79301 12.7692 5.32529C12.7692 6.85757 11.4231 8.0983 9.76083 8.0983C8.09851 8.0983 6.7525 6.85757 6.7525 5.32529C6.7525 3.79301 8.09851 2.55228 9.76083 2.55228ZM18.7858 18.266C18.7858 18.7765 18.3369 19.1903 17.783 19.1903C17.2292 19.1903 16.7803 18.7765 16.7803 18.266V16.4173C16.7803 15.0677 12.9256 13.6443 9.76083 13.6443C9.56303 13.6443 9.36254 13.6499 9.16046 13.6606C6.12929 13.8219 2.74139 15.152 2.74139 16.4173M2.74139 16.4186V18.266C2.74139 18.7765 2.29243 19.1903 1.73862 19.1903C1.1848 19.1903 0.73584 18.7765 0.73584 18.266V16.4173C0.73584 13.5845 5.58023 11.7956 9.76083 11.7956C13.9414 11.7956 18.7858 13.5845 18.7858 16.4173V18.266" />
</svg>