<svg width="" height="" viewBox="0 0 23 23" fill="" xmlns="http://www.w3.org/2000/svg">
<path d="M11 22.5C17.0751 22.5 22 17.5751 22 11.5C22 5.42487 17.0751 0.5 11 0.5C4.92487 0.5 0 5.42487 0 11.5C0 17.5751 4.92487 22.5 11 22.5ZM17.1847 18.7113C15.5228 20.1379 13.3621 21 11 21C8.69614 21 6.58383 20.1799 4.93905 18.8157C5.88662 17.5475 7.86109 16.4489 10.3955 16.2742V14.4297C8.6516 14.0785 7.33301 12.4527 7.33301 10.5C7.33301 8.29086 9.02076 6.5 11.1027 6.5C13.1847 6.5 14.8724 8.29086 14.8724 10.5C14.8724 12.2728 13.7856 13.7762 12.2804 14.3009V16.318C14.5149 16.5797 16.2703 17.5641 17.1847 18.7113ZM18.2476 17.6421C17.2832 16.5018 15.7798 15.5928 13.9744 15.1159C15.4358 14.1208 16.3724 12.3937 16.3724 10.5C16.3724 7.54748 14.0956 5 11.1027 5C8.10977 5 5.83301 7.54748 5.83301 10.5C5.83301 12.3937 6.76957 14.1207 8.23096 15.1159C6.36367 15.6089 4.81635 16.5644 3.85673 17.7631C2.3895 16.091 1.5 13.8994 1.5 11.5C1.5 6.25329 5.75329 2 11 2C16.2467 2 20.5 6.25329 20.5 11.5C20.5 13.8419 19.6526 15.9859 18.2476 17.6421Z" />
</svg>
